<mxfile host="app.diagrams.net" modified="2023-09-11T06:22:06.536Z" agent="Mozilla/5.0 (Windows NT 10.0; Win64; x64) AppleWebKit/537.36 (KHTML, like Gecko) Chrome/116.0.0.0 Safari/537.36" version="21.7.4" etag="blKn2P7odBCqn1RuAf6x" type="github">
  <diagram name="Page-1" id="0eXSnzTXlUQ9DfMGkLu3">
    <mxGraphModel>
      <root>
        <mxCell id="0" />
        <mxCell id="1" parent="0" />
      </root>
    </mxGraphModel>
  </diagram>
</mxfile>
